<?xml version="1.0" encoding="utf-8"?>
<!-- Generator: Adobe Illustrator 19.1.0, SVG Export Plug-In . SVG Version: 6.00 Build 0)  -->
<!DOCTYPE svg PUBLIC "-//W3C//DTD SVG 1.1//EN" "http://www.w3.org/Graphics/SVG/1.1/DTD/svg11.dtd">
<svg version="1.1" id="Layer_1" xmlns="http://www.w3.org/2000/svg" xmlns:xlink="http://www.w3.org/1999/xlink" x="0px" y="0px"
	 width="800px" height="600px" viewBox="0 0 800 600" enable-background="new 0 0 800 600" xml:space="preserve">
<path fill="#444444" d="M215.2,108.1c3.5-2.2,5.8-6.1,5.8-10.6c0-6.9-5.6-12.5-12.5-12.5S196,90.6,196,97.5c0,4.4,2.3,8.3,5.8,10.6
	c-8.7,2.8-15.1,10.9-15.3,20.4c0,0.8,0.6,1.5,1.5,1.5c0.8,0,1.5-0.6,1.5-1.5c0.2-10.2,8.8-18.5,19-18.5s18.8,8.3,19,18.5
	c0,0.8,0.7,1.5,1.5,1.5c0,0,0,0,0,0c0.8,0,1.5-0.7,1.5-1.5C230.3,118.9,223.8,110.9,215.2,108.1z M199,97.5c0-5.2,4.3-9.5,9.5-9.5
	s9.5,4.3,9.5,9.5s-4.3,9.5-9.5,9.5S199,102.7,199,97.5z"/>
<path fill="#444444" d="M230,214.5c0,0,0-0.1,0-0.1c0,0,0-0.1,0-0.1c0,0,0,0,0,0c0-0.1,0-0.1,0-0.2c0,0,0-0.1,0-0.1
	c0,0,0-0.1-0.1-0.1c0,0,0-0.1-0.1-0.1c0,0-0.1-0.1-0.1-0.1c0,0-0.1-0.1-0.1-0.1c0,0-0.1-0.1-0.1-0.1c0,0-0.1-0.1-0.1-0.1
	c0,0-0.1,0-0.1-0.1c-0.1,0-0.1-0.1-0.2-0.1c0,0-0.1,0-0.1,0c-0.1,0-0.1,0-0.2-0.1c0,0-0.1,0-0.1,0c-0.1,0-0.1,0-0.2,0c0,0,0,0,0,0
	c0,0-0.1,0-0.1,0c0,0-0.1,0-0.1,0l-29,4c0,0,0,0,0,0c-0.1,0-0.1,0-0.2,0c0,0-0.1,0-0.1,0c0,0-0.1,0-0.1,0.1c0,0-0.1,0-0.1,0.1
	c0,0-0.1,0.1-0.1,0.1c0,0-0.1,0.1-0.1,0.1c0,0-0.1,0.1-0.1,0.1c0,0-0.1,0.1-0.1,0.1c0,0-0.1,0.1-0.1,0.1c0,0,0,0.1-0.1,0.1
	c0,0,0,0.1-0.1,0.1c0,0,0,0.1,0,0.1c0,0,0,0.1,0,0.1c0,0.1,0,0.1,0,0.2c0,0,0,0,0,0v27.3c-1.3-0.8-2.8-1.3-4.5-1.3
	c-4.1,0-7.5,2.9-7.5,6.5s3.4,6.5,7.5,6.5s7.5-2.9,7.5-6.5c0-0.2,0-0.4,0-0.7c0-0.1,0-0.2,0-0.3v-20.2l26-3.6v16.6
	c-1.3-0.8-2.8-1.3-4.5-1.3c-4.1,0-7.5,2.9-7.5,6.5s3.4,6.5,7.5,6.5s7.5-2.9,7.5-6.5c0-0.1,0-0.2,0-0.3c0-0.1,0-0.1,0-0.2V214.5z
	 M193.5,254.5c-2.5,0-4.5-1.6-4.5-3.5s2-3.5,4.5-3.5s4.5,1.6,4.5,3.5S196,254.5,193.5,254.5z M222.5,251.5c-2.5,0-4.5-1.6-4.5-3.5
	s2-3.5,4.5-3.5s4.5,1.6,4.5,3.5S225,251.5,222.5,251.5z M227,223.2l-26,3.6v-7l26-3.6V223.2z"/>
<path fill="#444444" d="M613.5,222.6c-0.6,0-1.1,0.2-1.6,0.6l-11.9,9.9v-4.6c0-3-2.5-5.5-5.5-5.5h-21c-3,0-5.5,2.5-5.5,5.5v10
	c0,0.8,0.7,1.5,1.5,1.5s1.5-0.7,1.5-1.5v-10c0-1.4,1.1-2.5,2.5-2.5h21c1.4,0,2.5,1.1,2.5,2.5v14c0,1.4-1.1,2.5-2.5,2.5h-17
	c-0.8,0-1.5,0.7-1.5,1.5s0.7,1.5,1.5,1.5h17c3,0,5.5-2.5,5.5-5.5v-4.6l11.9,9.9c0.4,0.4,1,0.6,1.6,0.6h0c0.6,0,1.3-0.2,1.7-0.7
	c0.5-0.5,0.8-1.1,0.8-1.8v-20.7C616,223.8,614.9,222.6,613.5,222.6z M613,244.8l-11.2-9.3l11.2-9.3V244.8z"/>
<g>
	<path fill="#444444" d="M336.5,373c5.8,0,10.5-4.7,10.5-10.5v-11c0-5.8-4.7-10.5-10.5-10.5s-10.5,4.7-10.5,10.5v11
		C326,368.3,330.7,373,336.5,373z M329,351.5c0-4.1,3.4-7.5,7.5-7.5s7.5,3.4,7.5,7.5v11c0,4.1-3.4,7.5-7.5,7.5s-7.5-3.4-7.5-7.5
		V351.5z"/>
	<path fill="#444444" d="M352.5,358c-0.8,0-1.5,0.7-1.5,1.5v3.5c0,8-6.5,14.5-14.5,14.5S322,371,322,363v-3.5c0-0.8-0.7-1.5-1.5-1.5
		s-1.5,0.7-1.5,1.5v3.5c0,9.1,7.1,16.7,16,17.4v4.6h-4c-0.8,0-1.5,0.7-1.5,1.5s0.7,1.5,1.5,1.5h11c0.8,0,1.5-0.7,1.5-1.5
		s-0.7-1.5-1.5-1.5h-4v-4.6c8.9-0.8,16-8.3,16-17.4v-3.5C354,358.7,353.3,358,352.5,358z"/>
</g>
<g>
	<path fill="#444444" d="M485,346h-7.5H466v-2c0-0.8-0.7-1.5-1.5-1.5s-1.5,0.7-1.5,1.5v2h-13h-6c-0.8,0-1.5,0.7-1.5,1.5
		s0.7,1.5,1.5,1.5h6v30.5c0,3,2.5,5.5,5.5,5.5h18c3,0,5.5-2.5,5.5-5.5V355c0-0.8-0.7-1.5-1.5-1.5s-1.5,0.7-1.5,1.5v24.5
		c0,1.4-1.1,2.5-2.5,2.5h-18c-1.4,0-2.5-1.1-2.5-2.5V349h24.5h7.5c0.8,0,1.5-0.7,1.5-1.5S485.8,346,485,346z"/>
	<path fill="#444444" d="M459,354.5v22c0,0.8,0.7,1.5,1.5,1.5s1.5-0.7,1.5-1.5v-22c0-0.8-0.7-1.5-1.5-1.5S459,353.7,459,354.5z"/>
	<path fill="#444444" d="M467,354.5v22c0,0.8,0.7,1.5,1.5,1.5s1.5-0.7,1.5-1.5v-22c0-0.8-0.7-1.5-1.5-1.5S467,353.7,467,354.5z"/>
</g>
<g>
	<path fill="#444444" d="M355.3,495.3l-2.3-1.4c0-0.5,0.1-0.9,0.1-1.4s0-0.9-0.1-1.4l2.3-1.4c1.9-1.1,2.6-3.6,1.5-5.5l-3.5-6.1
		c-0.7-1.3-2.1-2-3.5-2c-0.7,0-1.4,0.2-2,0.5l-2.3,1.3c-0.8-0.5-1.6-1-2.4-1.4V474c0-2.2-1.8-4-4-4h-7c-2.2,0-4,1.8-4,4v2.7
		c-0.9,0.4-1.7,0.9-2.4,1.4l-2.3-1.3c-0.6-0.4-1.3-0.5-2-0.5c-1.4,0-2.7,0.7-3.5,2l-3.5,6.1c-1.1,1.9-0.4,4.4,1.5,5.5l2.3,1.4
		c0,0.5-0.1,0.9-0.1,1.4s0,0.9,0.1,1.4l-2.3,1.4c-1.9,1.1-2.6,3.6-1.5,5.5l3.5,6.1c0.7,1.3,2.1,2,3.5,2c0.7,0,1.4-0.2,2-0.5l2.3-1.3
		c0.8,0.5,1.6,1,2.4,1.4v2.7c0,2.2,1.8,4,4,4h7c2.2,0,4-1.8,4-4v-2.7c0.9-0.4,1.7-0.9,2.4-1.4l2.3,1.3c0.6,0.4,1.3,0.5,2,0.5
		c1.4,0,2.7-0.7,3.5-2l3.5-6.1C357.8,498.8,357.2,496.4,355.3,495.3z M354.1,499.2l-3.5,6.1c-0.2,0.3-0.5,0.5-0.9,0.5
		c-0.2,0-0.3,0-0.5-0.1l-2.3-1.3l-1.6-0.9l-1.6,1.1c-0.6,0.4-1.3,0.8-2,1.2l-1.7,0.8v1.9v2.7c0,0.6-0.4,1-1,1h-7c-0.6,0-1-0.4-1-1
		v-2.7v-1.9l-1.7-0.8c-0.7-0.4-1.4-0.7-2-1.2l-1.6-1.1l-1.6,0.9l-2.3,1.3c-0.2,0.1-0.3,0.1-0.5,0.1c-0.4,0-0.7-0.2-0.9-0.5l-3.5-6.1
		c-0.2-0.3-0.1-0.6-0.1-0.8s0.2-0.4,0.5-0.6l2.3-1.4l1.6-0.9l-0.2-1.9c0-0.4-0.1-0.8-0.1-1.2s0-0.8,0.1-1.2l0.2-1.9l-1.6-0.9
		l-2.3-1.4c-0.5-0.3-0.6-0.9-0.4-1.4l3.5-6.1c0.2-0.3,0.5-0.5,0.9-0.5c0.2,0,0.3,0,0.5,0.1l2.3,1.3l1.6,0.9l1.6-1.1
		c0.6-0.4,1.3-0.8,2-1.2l1.7-0.8v-1.9V474c0-0.6,0.4-1,1-1h7c0.6,0,1,0.4,1,1v2.7v1.9l1.7,0.8c0.7,0.4,1.4,0.7,2,1.2l1.6,1.1
		l1.6-0.9l2.3-1.3c0.2-0.1,0.3-0.1,0.5-0.1c0.4,0,0.7,0.2,0.9,0.5l3.5,6.1c0.3,0.5,0.1,1.1-0.4,1.4l-2.3,1.4l-1.6,0.9l0.2,1.9
		c0,0.4,0.1,0.8,0.1,1.2s0,0.8-0.1,1.2l-0.2,1.9l1.6,0.9l2.3,1.4c0.3,0.2,0.4,0.5,0.5,0.6S354.3,498.9,354.1,499.2z"/>
	<path fill="#444444" d="M335.5,485c-4.1,0-7.5,3.4-7.5,7.5s3.4,7.5,7.5,7.5s7.5-3.4,7.5-7.5S339.6,485,335.5,485z M335.5,497
		c-2.5,0-4.5-2-4.5-4.5s2-4.5,4.5-4.5s4.5,2,4.5,4.5S338,497,335.5,497z"/>
</g>
<g>
	<path fill="#444444" d="M609.5,487.4c-0.8,0-1.5,0.7-1.5,1.5v17c0,1.1-0.9,2.1-2.1,2.1h-26.8c-1.1,0-2.1-0.9-2.1-2.1v-26.8
		c0-1.1,0.9-2.1,2.1-2.1h17c0.8,0,1.5-0.7,1.5-1.5s-0.7-1.5-1.5-1.5h-17c-2.8,0-5.1,2.3-5.1,5.1v26.8c0,2.8,2.3,5.1,5.1,5.1h26.8
		c2.8,0,5.1-2.3,5.1-5.1v-17C611,488.1,610.3,487.4,609.5,487.4z"/>
	<path fill="#444444" d="M611.6,474.4c-0.6-0.6-1.5-0.6-2.1,0l-20,20c-0.6,0.6-0.6,1.5,0,2.1c0.3,0.3,0.7,0.4,1.1,0.4
		s0.8-0.1,1.1-0.4l20-20C612.1,476,612.1,475,611.6,474.4z"/>
</g>
<path fill="#444444" d="M361.7,119.3c-1.1-4.8-5.4-8.2-10.3-8.2c-4.7,0-8.8,3.2-10.1,7.6c-7-2.4-12.9-7.6-16-14.4
	c3.9-1.6,6.5-5.4,6.5-9.7c0-5.4-4-9.8-9.3-10.4c-0.4,0-0.8-0.1-1.2-0.1c-5.6,0-10.2,4.4-10.5,9.9c0,0.3,0,1.6,0.1,2.2
	c1.6,19.8,17.7,34.9,37.5,35.9c0,0,0,0,0.1,0c0.8,0,1.5-0.6,1.5-1.4c0-0.8-0.6-1.5-1.4-1.6c-18.3-0.7-33.2-14.9-34.6-33.2l0-0.1
	c0-0.3-0.1-1.4-0.1-1.6c0.2-4,3.5-7.1,7.5-7.1c0.3,0,0.6,0,0.8,0.1c3.8,0.4,6.7,3.6,6.7,7.5c0,3.5-2.5,6.6-5.9,7.3l-1.7,0.4l0.6,1.6
	c3.4,8.9,11,15.6,20.1,18.1l1.7,0.5l0.2-1.7c0.4-3.8,3.6-6.7,7.5-6.7c3.5,0,6.6,2.5,7.3,5.9c0.1,0.5,0.2,1.1,0.2,1.6
	c0,1.4-0.4,2.8-1.2,4c-0.4,0.7-0.2,1.6,0.4,2.1c0.7,0.4,1.6,0.2,2.1-0.4c1.1-1.7,1.7-3.7,1.7-5.7C362,120.8,361.9,120,361.7,119.3z"
	/>
<g>
	<circle fill="#444444" cx="454.5" cy="103.5" r="2.5"/>
	<circle fill="#444444" cx="464.5" cy="103.5" r="2.5"/>
	<circle fill="#444444" cx="474.5" cy="103.5" r="2.5"/>
	<path fill="#444444" d="M481,87h-34c-3.3,0-6,2.7-6,6v21c0,3.3,2.7,6,6,6h5.5c0.8,0,1.5-0.7,1.5-1.5s-0.7-1.5-1.5-1.5H447
		c-1.7,0-3-1.3-3-3V93c0-1.7,1.3-3,3-3h34c1.7,0,3,1.3,3,3v21c0,1.7-1.3,3-3,3h-15.1l-9.9,9.9c-0.6,0.6-0.6,1.5,0,2.1
		c0.3,0.3,0.7,0.4,1.1,0.4s0.8-0.1,1.1-0.4l9.1-9.1H481c3.3,0,6-2.7,6-6V93C487,89.7,484.3,87,481,87z"/>
</g>
<g>
	<path fill="#444444" d="M591.5,84c-13,0-23.5,10.5-23.5,23.5s10.5,23.5,23.5,23.5c2.9,0,5.7-0.5,8.4-1.5c0.8-0.3,1.2-1.2,0.9-1.9
		c-0.3-0.8-1.2-1.2-1.9-0.9c-2.3,0.9-4.8,1.3-7.3,1.3c-11.3,0-20.5-9.2-20.5-20.5S580.2,87,591.5,87s20.5,9.2,20.5,20.5
		c0,2.5-0.5,5-1.3,7.3c-0.3,0.8,0.1,1.6,0.9,1.9c0.8,0.3,1.6-0.1,1.9-0.9c1-2.7,1.5-5.5,1.5-8.4C615,94.5,604.5,84,591.5,84z"/>
	<path fill="#444444" d="M591.5,93.5c-0.8,0-1.5,0.7-1.5,1.5v13.1l7.9,7.9c0.3,0.3,0.7,0.4,1.1,0.4s0.8-0.1,1.1-0.4
		c0.6-0.6,0.6-1.5,0-2.1l-7.1-7.1V95C593,94.2,592.3,93.5,591.5,93.5z"/>
</g>
<g>
	<path fill="#444444" d="M214,486.5c0-3.6-2.9-6.5-6.5-6.5s-6.5,2.9-6.5,6.5s2.9,6.5,6.5,6.5S214,490.1,214,486.5z M204,486.5
		c0-1.9,1.6-3.5,3.5-3.5s3.5,1.6,3.5,3.5s-1.6,3.5-3.5,3.5S204,488.4,204,486.5z"/>
	<path fill="#444444" d="M207.5,470c-9.1,0-16.5,7.4-16.5,16.5c0,4.3,3.4,11.3,10,20.8c0.5,0.7,1.4,0.8,2.1,0.4
		c0.7-0.5,0.8-1.4,0.4-2.1c-6.1-8.7-9.5-15.5-9.5-19.1c0-7.4,6.1-13.5,13.5-13.5s13.5,6.1,13.5,13.5c0,6.4-10.6,21-14.7,26.1
		c-0.5,0.6-0.4,1.6,0.2,2.1c0.3,0.2,0.6,0.3,0.9,0.3c0.4,0,0.9-0.2,1.2-0.6c0.6-0.8,15.3-19.2,15.3-27.9
		C224,477.4,216.6,470,207.5,470z"/>
</g>
<path fill="#444444" d="M612.6,382.4l-12-12c-0.6-0.6-1.5-0.6-2.1,0c0,0,0,0.1-0.1,0.1c-2.9,2.9-6.8,4.5-10.9,4.5
	c-8.5,0-15.5-7-15.5-15.5s7-15.5,15.5-15.5s15.5,7,15.5,15.5c0,1.3-0.2,2.5-0.5,3.7c-0.2,0.8,0.3,1.6,1.1,1.8
	c0.8,0.2,1.6-0.3,1.8-1.1c0.4-1.4,0.5-2.9,0.5-4.5c0-10.2-8.3-18.5-18.5-18.5s-18.5,8.3-18.5,18.5s8.3,18.5,18.5,18.5
	c4.4,0,8.6-1.6,12-4.4l11,11c0.3,0.3,0.7,0.4,1.1,0.4s0.8-0.1,1.1-0.4C613.1,384,613.1,383,612.6,382.4z"/>
<g>
	<path fill="#444444" d="M352.2,217h-33.5c-3.1,0-5.8,2.7-5.8,5.9V240c0,0.8,0.7,1.5,1.5,1.5s1.5-0.7,1.5-1.5v-17.1
		c0-1.4,1.4-2.9,2.8-2.9h33.5c1.4,0,2.8,1.4,2.8,2.9v2.5l-17.2,16.7l-9-6.3c-0.1,0-0.1-0.1-0.2-0.1c0,0,0,0,0,0
		c-0.2-0.1-0.3-0.1-0.5-0.1c0,0,0,0-0.1,0c-0.2,0-0.3,0-0.5,0.1c0,0,0,0-0.1,0c-0.2,0.1-0.3,0.2-0.5,0.3c0,0,0,0,0,0l-13.5,12
		c0,0,0,0,0,0c0,0-0.1,0.1-0.1,0.1c0,0-0.1,0.1-0.1,0.1c0,0-0.1,0.1-0.1,0.1c0,0,0,0.1-0.1,0.1c0,0,0,0.1,0,0.1c0,0,0,0.1,0,0.1
		c0,0,0,0.1,0,0.1c0,0.1,0,0.1,0,0.2c0,0,0,0,0,0v1.1c0,3.1,2.7,5.9,5.8,5.9h33.5c3.1,0,5.8-2.7,5.8-5.9v-27.3
		C358,219.7,355.3,217,352.2,217z M352.2,253h-33.5c-1.4,0-2.8-1.4-2.8-2.9v-0.5l12.1-10.8l9,6.3c0.3,0.2,0.6,0.3,0.9,0.3
		c0.4,0,0.8-0.2,1-0.4l0,0l16-15.5v20.6C355,251.6,353.6,253,352.2,253z"/>
	<path fill="#444444" d="M328,227.5c0-2.5-2-4.5-4.5-4.5s-4.5,2-4.5,4.5s2,4.5,4.5,4.5S328,230,328,227.5z M322,227.5
		c0-0.8,0.7-1.5,1.5-1.5s1.5,0.7,1.5,1.5s-0.7,1.5-1.5,1.5S322,228.3,322,227.5z"/>
</g>
<g>
	<path fill="#444444" d="M473,239c0-5-4-9-9-9s-9,4-9,9c0,5,4,9,9,9S473,244,473,239z M458,239c0-3.3,2.7-6,6-6s6,2.7,6,6
		s-2.7,6-6,6S458,242.3,458,239z"/>
	<path fill="#444444" d="M484.5,222h-17.6c-0.1,0-0.3-0.1-0.4-0.2l-3.8-4.6c-0.7-0.8-1.6-1.3-2.7-1.3h-6.1c-1,0-2,0.5-2.7,1.3
		l-3.8,4.6c-0.1,0.1-0.2,0.2-0.4,0.2h-3.6c-1.9,0-3.5,1.6-3.5,3.5v6c0,0.8,0.7,1.5,1.5,1.5c0.1,0,7.5,0,7.5,0c0.8,0,1.5-0.7,1.5-1.5
		s-0.7-1.5-1.5-1.5h-6v-4.5c0-0.3,0.2-0.5,0.5-0.5h3.6c1,0,2-0.5,2.7-1.3l3.8-4.6c0.1-0.1,0.2-0.2,0.4-0.2h6.1
		c0.1,0,0.3,0.1,0.4,0.2l3.8,4.6c0.7,0.8,1.6,1.3,2.7,1.3h17.6c0.3,0,0.5,0.2,0.5,0.5v27c0,0.3-0.2,0.5-0.5,0.5h-41
		c-0.3,0-0.5-0.2-0.5-0.5V241c0-0.8-0.7-1.5-1.5-1.5s-1.5,0.7-1.5,1.5v11.5c0,1.9,1.6,3.5,3.5,3.5h41c1.9,0,3.5-1.6,3.5-3.5v-27
		C488,223.6,486.4,222,484.5,222z"/>
</g>
<g>
	<path fill="#444444" d="M208.5,351c-5.8,0-10.5,4.7-10.5,10.5c0,5.8,4.7,10.5,10.5,10.5s10.5-4.7,10.5-10.5
		C219,355.7,214.3,351,208.5,351z M208.5,369c-4.1,0-7.5-3.4-7.5-7.5s3.4-7.5,7.5-7.5s7.5,3.4,7.5,7.5S212.6,369,208.5,369z"/>
	<circle fill="#444444" cx="207" cy="359" r="2"/>
	<path fill="#444444" d="M229.9,380.5c-0.9-3.3-2.6-6.2-4.9-8.6c1.9-3,3-6.6,3-10.4c0-10.8-8.7-19.5-19.5-19.5
		c-10.8,0-19.5,8.7-19.5,19.5c0,3.8,1.1,7.4,3,10.4l0,0c-2.3,2.4-4,5.3-4.9,8.6c-0.4,1.5-0.1,3.1,0.9,4.4c1,1.3,2.6,2.1,4.2,2.1
		h26.7c0.8,0,1.5-0.7,1.5-1.5s-0.7-1.5-1.5-1.5h-26.7c-0.8,0-1.4-0.3-1.9-0.9c-0.4-0.5-0.5-1.2-0.4-1.8c0.7-2.6,2-5,3.8-7
		c0,0,0,0,0,0c3.6,4.1,8.8,6.6,14.6,6.6c5.8,0,11.1-2.6,14.6-6.6c1.8,2,3.1,4.3,3.8,7c0.2,0.8,1,1.3,1.8,1.1
		C229.7,382.2,230.2,381.3,229.9,380.5z M208.6,378c-9.1,0-16.5-7.4-16.5-16.5c0-9.1,7.4-16.5,16.5-16.5s16.5,7.4,16.5,16.5
		C225.1,370.6,217.7,378,208.6,378z"/>
</g>
<g>
	<path fill="#444444" d="M480.3,472.2c-0.7-0.5-1.6-0.4-2.1,0.3c-0.5,0.7-0.4,1.6,0.3,2.1c5.4,4.1,8.4,10.4,8.4,17.1
		c0,6.8-3.1,13-8.5,17.1c-0.7,0.5-0.8,1.4-0.3,2.1c0.3,0.4,1.2,0.6,1.2,0.6s0.6-0.1,0.9-0.3c6.1-4.7,9.7-11.8,9.7-19.5
		C489.9,484,486.4,476.9,480.3,472.2z"/>
	<path fill="#444444" d="M474.8,481.4c-0.7-0.5-1.6-0.4-2.1,0.3c-0.5,0.7-0.4,1.6,0.3,2.1c2.5,1.9,3.9,4.8,3.9,7.9
		c0,3.1-1.4,6.1-4,8c-0.7,0.5-0.8,1.4-0.3,2.1c0.3,0.4,0.7,0.6,1.2,0.6c0.3,0,0.6-0.1,0.9-0.3c3.3-2.5,5.1-6.3,5.1-10.4
		C479.9,487.6,478.1,483.9,474.8,481.4z"/>
	<path fill="#444444" d="M464,472.2c-5.6,0.8-10.5,4.5-13.4,9.8h-2.1c-3,0-5.5,2.5-5.5,5.5v6.5c0,0.8,0.7,1.5,1.5,1.5
		s1.5-0.7,1.5-1.5v-6.5c0-1.4,1.1-2.5,2.5-2.5h4l0.4-0.8c2.4-4.9,6.7-8.3,11.5-9c0.2,0,0.3,0.1,0.4,0.1c0.1,0.1,0.2,0.2,0.2,0.4
		v33.7c0,0.2-0.1,0.3-0.2,0.4c-0.1,0.1-0.2,0.2-0.4,0.1c-5.2-0.8-9.7-4.5-11.9-9.9l-0.4-0.9h-3.6c-0.8,0-1.5,0.7-1.5,1.5
		s0.7,1.5,1.5,1.5h1.6c2.8,5.9,7.9,9.9,13.8,10.8c0.2,0,0.4,0,0.5,0c0.8,0,1.7-0.3,2.3-0.9c0.8-0.7,1.2-1.6,1.2-2.7v-33.7
		c0-1-0.4-2-1.2-2.7C466,472.3,465,472,464,472.2z"/>
</g>
</svg>
